<svg width="215" height="26" viewBox="0 0 215 26" fill="none" xmlns="http://www.w3.org/2000/svg">
<path d="M13.1254 0.0213684C17.55 0.0213684 21.1622 1.93095 23.5047 5.41733L19.1195 9.16519C17.55 6.96243 15.6492 5.82143 13.015 5.82143C8.96109 5.82143 6.43727 8.49961 6.43727 12.5803C6.43727 16.7322 9.10306 19.5213 13.3857 19.5213C15.6887 19.5213 17.5185 18.7131 18.6857 17.3582V16.2172H13.0544V10.7816H24.9716V18.4199C23.8359 20.4405 22.227 22.0569 20.1448 23.3009C18.0626 24.5132 15.7202 25.1391 13.1254 25.1391C5.88518 25.2501 -0.101029 19.5926 0.00150153 12.5803C-0.108916 5.6075 5.88518 -0.0895618 13.1254 0.0213684Z" fill="#46A358"/>
<path d="M42.8852 24.682L37.4432 17.1546H34.8484V24.682H28.5625V0.451691H38.0268C43.3978 0.451691 47.3492 3.75583 47.3492 8.78732C47.3492 11.7587 45.9217 14.2229 43.5477 15.6888L49.9046 24.682H42.8852ZM34.8405 11.6477H38.0584C39.8093 11.6477 40.945 10.5067 40.945 8.78732C40.945 7.0679 39.8093 5.95859 38.0584 5.95859H34.8405V11.6477Z" fill="#46A358"/>
<path d="M52.3896 0.451691H69.1258V6.14083H58.6756V9.48459H66.1288V14.7696H58.6756V18.9929H69.5675V24.682H52.3896V0.451691Z" fill="#46A358"/>
<path d="M73.4883 0.451691H90.2242V6.14083H79.7741V9.48459H87.2272V14.7696H79.7741V18.9929H90.6658V24.682H73.4883V0.451691Z" fill="#46A358"/>
<path d="M115.967 0.451716V25.1258H113.956L100.872 12.3846V24.682H94.5859V0.00799561H96.5971L109.682 12.5669V0.451716H115.967Z" fill="#46A358"/>
<path d="M123.459 16.4573C124.887 18.3669 126.385 19.5792 128.83 19.5792C130.478 19.5792 131.314 18.9928 131.314 17.8122C131.314 16.7505 130.762 16.4177 128.862 15.5698L126.377 14.4685C122.394 12.7015 120.273 10.4274 120.273 7.16292C120.273 2.86834 123.782 0 128.712 0C132.695 0 135.51 1.90959 136.969 4.88093L132.766 8.11375C131.598 6.35472 130.502 5.54651 128.783 5.54651C127.466 5.54651 126.63 6.06154 126.63 7.09161C126.63 7.97113 127.142 8.45447 128.712 9.0725L131.488 10.2452C135.692 12.0122 137.663 14.1357 137.663 17.5507C137.663 22.2494 133.822 25.1178 128.814 25.1178C124.469 25.1178 120.959 23.0259 119.2 19.6822L123.459 16.4573Z" fill="#46A358"/>
<path d="M141.272 0.451691H147.558V9.30235H156.368V0.451691H162.653V24.682H156.368V14.9915H147.558V24.682H141.272V0.451691Z" fill="#46A358"/>
<path d="M179.211 0.0078561C186.23 -0.142692 192.406 5.62567 192.256 12.5667C192.398 19.5791 186.23 25.2365 179.211 25.1256C172.16 25.2365 166.087 19.5791 166.237 12.5667C166.087 5.62567 172.16 -0.134768 179.211 0.0078561ZM179.243 5.80792C175.37 5.80792 172.665 8.56532 172.665 12.5667C172.665 14.5872 173.288 16.2354 174.495 17.4873C175.701 18.6996 177.31 19.3255 179.243 19.3255C182.973 19.3255 185.82 16.6078 185.82 12.5667C185.828 8.56532 182.973 5.80792 179.243 5.80792Z" fill="#46A358"/>
<path d="M195.858 0.451691H205.323C210.693 0.451691 214.645 3.75583 214.645 8.78732C214.645 13.7475 210.591 17.1546 205.323 17.1546H202.144V24.682H195.858V0.451691ZM205.354 11.6477C207.105 11.6477 208.241 10.5067 208.241 8.78732C208.241 7.0679 207.105 5.95859 205.354 5.95859H202.136V11.6477H205.354Z" fill="#46A358"/>
</svg>
